<svg xmlns="http://www.w3.org/2000/svg" width="15.611" height="17.312" viewBox="0 0 15.611 17.312"><g transform="translate(1 1)"><path d="M19.611,28.6a1,1,0,0,1-1-1V25.9a2.4,2.4,0,0,0-2.4-2.4H9.4A2.4,2.4,0,0,0,7,25.9v1.7a1,1,0,1,1-2,0V25.9a4.408,4.408,0,0,1,4.4-4.4h6.805a4.408,4.408,0,0,1,4.4,4.4v1.7A1,1,0,0,1,19.611,28.6Z" transform="translate(-6 -12.292)"/><path d="M15.4,3.5A4.4,4.4,0,1,1,11,7.9,4.408,4.408,0,0,1,15.4,3.5Zm0,6.805A2.4,2.4,0,1,0,13,7.9,2.405,2.405,0,0,0,15.4,10.305Z" transform="translate(-8.597 -4.5)"/></g></svg>